<svg xmlns="http://www.w3.org/2000/svg" version="1.1" xmlns:xlink="http://www.w3.org/1999/xlink" xmlns:svgjs="http://svgjs.dev/svgjs" width="1000" height="1000" viewBox="0 0 1000 1000"><rect width="1000" height="1000" fill="#ffffff"></rect><g transform="matrix(0.7,0,0,0.7,149.57575757575756,461.56794478796326)"><svg viewBox="0 0 396 44" data-background-color="#ffffff" preserveAspectRatio="xMidYMid meet" height="111" width="1000" xmlns="http://www.w3.org/2000/svg" xmlns:xlink="http://www.w3.org/1999/xlink"><g id="tight-bounds" transform="matrix(1,0,0,1,0.2400000000000091,-0.23667401120187037)"><svg viewBox="0 0 395.52 44.47334802240373" height="44.47334802240373" width="395.52"><g><svg viewBox="0 0 495.5904184862268 55.72553893079154" height="44.47334802240373" width="395.52"><g><rect width="3.636314478679419" height="40.523999005387466" x="405.03914784994606" y="7.600769962702035" fill="#2b7457" opacity="1" stroke-width="0" stroke="transparent" fill-opacity="1" class="rect-o-0" data-fill-palette-color="primary" rx="1%" id="o-0" data-palette-color="#2b7457"></rect></g><g transform="matrix(1,0,0,1,0,7.701575930377125)"><svg viewBox="0 0 395.5199999999999 40.32238707003729" height="40.32238707003729" width="395.5199999999999"><g id="textblocktransform"><svg viewBox="0 0 395.5199999999999 40.32238707003729" height="40.32238707003729" width="395.5199999999999" id="textblock"><g><svg viewBox="0 0 395.5199999999999 40.32238707003729" height="40.32238707003729" width="395.5199999999999"><g transform="matrix(1,0,0,1,0,0)"><svg width="395.5199999999999" viewBox="1 -35.900001525878906 366.32000732421875 36.900001525878906" height="40.32238707003729" data-palette-color="#2b7457"><g class="wordmark-text-0" data-fill-palette-color="primary" id="text-0"><path d="M3.2-35.9Q3.85-35.9 7.28-35.7 10.7-35.5 20.75-35.5 30.8-35.5 32.9-35.8L32.9-35.8Q33.45-35.8 33.65-35.5 33.85-35.2 33.85-34.95L33.85-34.95 34.15-30.9Q34.15-29.65 34-29.33 33.85-29 33.35-29L33.35-29Q32.95-29 32.68-30.03 32.4-31.05 32.1-31.6L32.1-31.6Q31.35-32.9 27.75-32.9L27.75-32.9 21.25-32.9Q20.05-32.9 19.78-32.43 19.5-31.95 19.5-29.7L19.5-29.7 19.5-27.25 19.35-8.95 19.3-5.7Q19.3-3.55 19.98-2.9 20.65-2.25 21.45-1.93 22.25-1.6 22.8-1.55L22.8-1.55Q24.2-1.45 24.2-0.65L24.2-0.65Q24.2-0.1 23.95 0.05 23.7 0.2 23 0.2L23 0.2 17.45-0.2 12.35 0.15Q10.5 0.15 10.5-0.65L10.5-0.65Q10.5-1.15 10.8-1.33 11.1-1.5 11.98-1.63 12.85-1.75 13.1-1.8L13.1-1.8Q14.8-2.2 15-3.8L15-3.8Q15.5-8.2 15.5-22.7L15.5-22.7 15.45-31.65Q15.45-32.6 14.9-32.83 14.35-33.05 11.25-33.05 8.15-33.05 6.38-32.85 4.6-32.65 4.3-32.48 4-32.3 3.58-31.75 3.15-31.2 2.88-30.48 2.6-29.75 2.5-29.3L2.5-29.3Q2.35-28.15 1.55-28.15L1.55-28.15Q1-28.15 1-29L1-29Q1-31 1.25-32.63 1.5-34.25 1.53-34.5 1.55-34.75 1.58-34.83 1.6-34.9 1.63-35.08 1.65-35.25 1.7-35.33 1.75-35.4 1.83-35.52 1.9-35.65 2-35.7 2.1-35.75 2.25-35.8L2.25-35.8Q2.55-35.9 3.2-35.9ZM38.35-35.9Q39-35.9 42.42-35.7 45.85-35.5 55.9-35.5 65.95-35.5 68.05-35.8L68.05-35.8Q68.6-35.8 68.8-35.5 69-35.2 69-34.95L69-34.95 69.3-30.9Q69.3-29.65 69.15-29.33 69-29 68.5-29L68.5-29Q68.1-29 67.82-30.03 67.55-31.05 67.25-31.6L67.25-31.6Q66.5-32.9 62.9-32.9L62.9-32.9 56.4-32.9Q55.2-32.9 54.92-32.43 54.65-31.95 54.65-29.7L54.65-29.7 54.65-27.25 54.5-8.95 54.45-5.7Q54.45-3.55 55.12-2.9 55.8-2.25 56.6-1.93 57.4-1.6 57.95-1.55L57.95-1.55Q59.35-1.45 59.35-0.65L59.35-0.65Q59.35-0.1 59.1 0.05 58.85 0.2 58.15 0.2L58.15 0.2 52.6-0.2 47.5 0.15Q45.65 0.15 45.65-0.65L45.65-0.65Q45.65-1.15 45.95-1.33 46.25-1.5 47.12-1.63 48-1.75 48.25-1.8L48.25-1.8Q49.95-2.2 50.15-3.8L50.15-3.8Q50.65-8.2 50.65-22.7L50.65-22.7 50.6-31.65Q50.6-32.6 50.05-32.83 49.5-33.05 46.4-33.05 43.3-33.05 41.52-32.85 39.75-32.65 39.45-32.48 39.15-32.3 38.72-31.75 38.3-31.2 38.02-30.48 37.75-29.75 37.65-29.3L37.65-29.3Q37.5-28.15 36.7-28.15L36.7-28.15Q36.15-28.15 36.15-29L36.15-29Q36.15-31 36.4-32.63 36.65-34.25 36.67-34.5 36.7-34.75 36.72-34.83 36.75-34.9 36.77-35.08 36.8-35.25 36.85-35.33 36.9-35.4 36.97-35.52 37.05-35.65 37.15-35.7 37.25-35.75 37.4-35.8L37.4-35.8Q37.7-35.9 38.35-35.9ZM72.5-7.25L72.5-7.25 72.5-7.8Q72.5-9.25 72.97-9.65 73.45-10.05 75.72-10.73 78-11.4 80.05-12.13 82.09-12.85 82.82-13.13 83.55-13.4 84-13.4L84-13.4Q85.09-13.4 85.09-11.7L85.09-11.7 85.09-11.4Q85.09-10.25 84.59-9.85L84.59-9.85Q84.15-9.55 83.45-9.35L83.45-9.35Q80.5-8.55 78.3-7.75 76.09-6.95 75.5-6.7L75.5-6.7Q74-6.2 73.25-6.2 72.5-6.2 72.5-7.25ZM93.09-11.55L93.09-17.75 93.24-26.4Q93.24-27.75 93.14-30.95L93.14-30.95Q93.09-32.4 91.89-33.2 90.69-34 89.09-34.05L89.09-34.05Q88.29-34.05 88.29-34.95L88.29-34.95Q88.29-35.65 89.69-35.65L89.69-35.65 91.04-35.55 103.24-35.3 113.24-35.5Q114.19-35.5 114.19-34.35L114.19-34.35Q114.19-34.05 113.89-32.38 113.59-30.7 113.59-29.75L113.59-29.75Q113.59-28.15 112.82-28.15 112.04-28.15 112.04-29.35 112.04-30.55 111.19-31.65 110.34-32.75 109.09-32.8L109.09-32.8Q104.59-33.15 102.19-33.15L102.19-33.15 100.89-33.15Q98.29-33.15 97.89-32.8L97.89-32.8Q97.14-32.15 97.14-21.75L97.14-21.75Q97.14-19.25 98.09-19.2L98.09-19.2 102.99-19.2Q105.99-19.2 106.99-19.4L106.99-19.4Q109.59-19.9 109.94-22L109.94-22Q110.09-22.85 110.59-22.85 111.09-22.85 111.19-22.7 111.29-22.55 111.29-22.05L111.29-22.05 110.89-16.8 111.04-13.75Q111.04-12.5 110.69-12.5L110.69-12.5Q109.94-12.5 109.59-13.7L109.59-13.7Q108.89-15.8 108.34-16.15L108.34-16.15Q107.29-16.85 104.69-16.85L104.69-16.85 101.09-16.85 99.49-16.9 99.14-16.9Q97.09-16.9 97.09-15.95L97.09-15.95 96.99-8.75 96.99-6.75Q96.99-3.15 98.22-2.78 99.44-2.4 100.34-2.4L100.34-2.4Q107.84-2.4 111.19-3.6L111.19-3.6Q114.14-4.7 114.79-5.9L114.79-5.9Q115.39-7.15 115.89-7.15L115.89-7.15Q116.49-7.15 116.49-6.3L116.49-6.3Q116.49-4.15 114.34-1.95 112.19 0.25 110.59 0.25L110.59 0.25Q106.99 0.25 102.47 0 97.94-0.25 96.84-0.25L96.84-0.25 90.04 0.2Q88.99 0.2 88.99-0.3L88.99-0.3 88.99-0.9Q88.99-1.2 89.49-1.3L89.49-1.3Q90.04-1.35 91.19-1.9 92.34-2.45 92.72-4.2 93.09-5.95 93.09-11.55L93.09-11.55ZM128.59 0L124.19-0.15 120.19 0.05Q119.24 0.05 118.99-0.2 118.74-0.45 118.74-0.85 118.74-1.25 119.04-1.38 119.34-1.5 119.79-1.5L119.79-1.5Q121.04-1.6 121.92-2.27 122.79-2.95 123.37-3.5 123.94-4.05 124.57-4.83 125.19-5.6 125.69-6.2 126.19-6.8 126.94-7.83 127.69-8.85 128.06-9.38 128.44-9.9 129.27-11.08 130.09-12.25 130.62-12.98 131.14-13.7 132.19-15.08 133.24-16.45 133.67-17.05 134.09-17.65 134.09-17.8 134.09-17.95 133.89-18.28 133.69-18.6 133.14-19.38 132.59-20.15 131.89-21.1L131.89-21.1Q129.14-24.9 127.29-27.55L127.29-27.55Q123.29-33.45 120.49-34.05L120.49-34.05Q119.39-34.05 118.94-34.4 118.49-34.75 118.49-35.1 118.49-35.45 118.84-35.58 119.19-35.7 120.59-35.7L120.59-35.7 125.04-35.5 130.29-35.6Q131.39-35.6 131.39-35.15 131.39-34.7 131.04-34.5 130.69-34.3 130.29-34.3L130.29-34.3Q129.14-34.2 129.14-33.23 129.14-32.25 131.84-28.35L131.84-28.35Q135.89-22.2 136.29-21.8 136.69-21.4 136.84-21.4L136.84-21.4Q137.24-21.4 137.84-22.28 138.44-23.15 139.44-24.58 140.44-26 141.22-27.13 141.99-28.25 142.79-29.5L142.79-29.5Q144.59-32.1 144.59-32.83 144.59-33.55 144.17-33.93 143.74-34.3 143.29-34.35L143.29-34.35Q141.94-34.5 141.94-35.2L141.94-35.2Q141.94-35.7 142.69-35.7L142.69-35.7 146.74-35.5Q149.54-35.5 150.42-35.6 151.29-35.7 151.44-35.7L151.44-35.7Q152.24-35.7 152.24-35.2 152.24-34.7 151.79-34.52 151.34-34.35 150.34-34 149.34-33.65 148.44-33.02 147.54-32.4 145.84-30.1L145.84-30.1Q138.09-19.7 138.09-19.6L138.09-19.6Q138.09-19.25 140.17-16.3 142.24-13.35 144.39-10.25L144.39-10.25Q148.99-3.55 150.89-2L150.89-2Q151.04-1.85 151.89-1.7L151.89-1.7Q154.04-1.3 154.04-0.65L154.04-0.65Q154.04-0.4 153.99-0.3L153.99-0.3Q153.79 0.05 152.44 0.05L152.44 0.05 147.09-0.3Q144.59-0.3 143.39-0.15 142.19 0 141.99 0L141.99 0Q141.34 0 141.34-0.63 141.34-1.25 142.62-1.55 143.89-1.85 143.89-2.8L143.89-2.8Q143.89-3.75 140.99-8L140.99-8Q137.49-13 136.54-14.5 135.59-16 135.24-16L135.24-16Q135.14-16 134.12-14.35 133.09-12.7 131.02-9.93 128.94-7.15 127.89-5.45 126.84-3.75 126.84-2.75L126.84-2.75Q126.84-1.4 129.54-1.4L129.54-1.4Q130.14-1.4 130.14-0.55L130.14-0.55Q130.14 0 128.59 0L128.59 0ZM160.84-11.55L160.84-17.75 160.99-26.4Q160.99-27.75 160.89-30.95L160.89-30.95Q160.84-32.4 159.64-33.2 158.44-34 156.84-34.05L156.84-34.05Q156.04-34.05 156.04-34.95L156.04-34.95Q156.04-35.65 157.44-35.65L157.44-35.65 158.79-35.55 170.99-35.3 180.99-35.5Q181.94-35.5 181.94-34.35L181.94-34.35Q181.94-34.05 181.64-32.38 181.34-30.7 181.34-29.75L181.34-29.75Q181.34-28.15 180.56-28.15 179.79-28.15 179.79-29.35 179.79-30.55 178.94-31.65 178.09-32.75 176.84-32.8L176.84-32.8Q172.34-33.15 169.94-33.15L169.94-33.15 168.64-33.15Q166.04-33.15 165.64-32.8L165.64-32.8Q164.89-32.15 164.89-21.75L164.89-21.75Q164.89-19.25 165.84-19.2L165.84-19.2 170.74-19.2Q173.74-19.2 174.74-19.4L174.74-19.4Q177.34-19.9 177.69-22L177.69-22Q177.84-22.85 178.34-22.85 178.84-22.85 178.94-22.7 179.04-22.55 179.04-22.05L179.04-22.05 178.64-16.8 178.79-13.75Q178.79-12.5 178.44-12.5L178.44-12.5Q177.69-12.5 177.34-13.7L177.34-13.7Q176.64-15.8 176.09-16.15L176.09-16.15Q175.04-16.85 172.44-16.85L172.44-16.85 168.84-16.85 167.24-16.9 166.89-16.9Q164.84-16.9 164.84-15.95L164.84-15.95 164.74-8.75 164.74-6.75Q164.74-3.15 165.96-2.78 167.19-2.4 168.09-2.4L168.09-2.4Q175.59-2.4 178.94-3.6L178.94-3.6Q181.89-4.7 182.54-5.9L182.54-5.9Q183.14-7.15 183.64-7.15L183.64-7.15Q184.24-7.15 184.24-6.3L184.24-6.3Q184.24-4.15 182.09-1.95 179.94 0.25 178.34 0.25L178.34 0.25Q174.74 0.25 170.21 0 165.69-0.25 164.59-0.25L164.59-0.25 157.79 0.2Q156.74 0.2 156.74-0.3L156.74-0.3 156.74-0.9Q156.74-1.2 157.24-1.3L157.24-1.3Q157.79-1.35 158.94-1.9 160.09-2.45 160.46-4.2 160.84-5.95 160.84-11.55L160.84-11.55ZM187.44-16.25Q187.44-21.65 189.54-26 191.64-30.35 196.01-33.02 200.39-35.7 206.39-35.7L206.39-35.7Q209.44-35.7 212.54-34.8 215.64-33.9 217.49-33L217.49-33 219.34-32.05Q219.49-32.05 219.84-32.3 220.19-32.55 220.41-32.55 220.64-32.55 220.89-32.35 221.14-32.15 221.16-31.23 221.19-30.3 221.36-28.68 221.54-27.05 221.69-26 221.84-24.95 221.84-24.75L221.84-24.75Q221.84-23.85 221.24-23.85L221.24-23.85Q220.79-23.85 220.39-24.55L220.39-24.55Q215.54-33.65 206.39-33.65L206.39-33.65Q200.14-33.65 196.14-29.65 192.14-25.65 192.14-19.2L192.14-19.2Q192.14-12 195.84-6.9L195.84-6.9Q197.74-4.3 201.04-2.8 204.34-1.3 208.74-1.3L208.74-1.3Q215.94-1.3 220.84-8.8L220.84-8.8Q221.04-9.15 221.59-9.15L221.59-9.15Q222.04-9.15 222.04-8.53 222.04-7.9 221.86-6.98 221.69-6.05 221.44-4.93 221.19-3.8 221.14-3.55L221.14-3.55Q221.04-3 220.34-2.65L220.34-2.65Q217.64-1.35 216.14-0.7L216.14-0.7Q212.14 1 207.61 1 203.09 1 199.59-0.05 196.09-1.1 193.86-2.8 191.64-4.5 190.14-6.8L190.14-6.8Q187.44-10.85 187.44-16.25ZM231.28-20.7L231.28-21.55 231.38-28.75Q231.38-31.5 230.73-32.52 230.08-33.55 227.68-33.9L227.68-33.9Q226.58-34.05 226.58-34.85L226.58-34.85Q226.58-35.25 226.88-35.38 227.18-35.5 227.73-35.5L227.73-35.5 233.38-35.3 238.08-35.4Q239.13-35.4 239.13-34.7L239.13-34.7Q239.13-34.25 238.78-34.15 238.43-34.05 237.91-34 237.38-33.95 236.88-33.65L236.88-33.65Q235.63-32.95 235.63-29L235.63-29 235.63-27.6 235.58-16.8Q235.58-11.85 235.88-10.35 236.18-8.85 236.58-7.58 236.98-6.3 237.56-5.55 238.13-4.8 239.01-3.9 239.88-3 241.03-2.5L241.03-2.5Q243.73-1.4 247.18-1.4L247.18-1.4Q252.58-1.4 254.68-2.6L254.68-2.6Q255.58-3.1 256.76-4.17 257.93-5.25 258.58-6.8L258.58-6.8Q260.13-10.5 260.13-16.2L260.13-16.2 260.08-26.8Q260.08-28.55 260.01-29.55 259.93-30.55 259.51-31.75 259.08-32.95 258.43-33.4 257.78-33.85 256.98-33.98 256.18-34.1 255.68-34.18 255.18-34.25 255.18-34.6L255.18-34.6Q255.18-35.4 256.18-35.4L256.18-35.4 260.03-35.3 264.28-35.45Q265.33-35.45 265.33-34.8L265.33-34.8Q265.33-34.4 264.26-33.77 263.18-33.15 262.93-32.65L262.93-32.65Q262.38-31.6 262.38-29.35L262.38-29.35 262.43-26Q262.43-16.4 261.63-11.3 260.83-6.2 259.18-3.9L259.18-3.9Q255.83 0.95 247.33 0.95 238.83 0.95 235.33-2.25L235.33-2.25Q232.58-4.8 231.93-8.38 231.28-11.95 231.28-20.7L231.28-20.7ZM269.53-35.9Q270.18-35.9 273.6-35.7 277.03-35.5 287.08-35.5 297.13-35.5 299.23-35.8L299.23-35.8Q299.78-35.8 299.98-35.5 300.18-35.2 300.18-34.95L300.18-34.95 300.48-30.9Q300.48-29.65 300.33-29.33 300.18-29 299.68-29L299.68-29Q299.28-29 299-30.03 298.73-31.05 298.43-31.6L298.43-31.6Q297.68-32.9 294.08-32.9L294.08-32.9 287.58-32.9Q286.38-32.9 286.1-32.43 285.83-31.95 285.83-29.7L285.83-29.7 285.83-27.25 285.68-8.95 285.63-5.7Q285.63-3.55 286.31-2.9 286.98-2.25 287.78-1.93 288.58-1.6 289.13-1.55L289.13-1.55Q290.53-1.45 290.53-0.65L290.53-0.65Q290.53-0.1 290.28 0.05 290.03 0.2 289.33 0.2L289.33 0.2 283.78-0.2 278.68 0.15Q276.83 0.15 276.83-0.65L276.83-0.65Q276.83-1.15 277.13-1.33 277.43-1.5 278.31-1.63 279.18-1.75 279.43-1.8L279.43-1.8Q281.13-2.2 281.33-3.8L281.33-3.8Q281.83-8.2 281.83-22.7L281.83-22.7 281.78-31.65Q281.78-32.6 281.23-32.83 280.68-33.05 277.58-33.05 274.48-33.05 272.7-32.85 270.93-32.65 270.63-32.48 270.33-32.3 269.9-31.75 269.48-31.2 269.2-30.48 268.93-29.75 268.83-29.3L268.83-29.3Q268.68-28.15 267.88-28.15L267.88-28.15Q267.33-28.15 267.33-29L267.33-29Q267.33-31 267.58-32.63 267.83-34.25 267.85-34.5 267.88-34.75 267.9-34.83 267.93-34.9 267.95-35.08 267.98-35.25 268.03-35.33 268.08-35.4 268.15-35.52 268.23-35.65 268.33-35.7 268.43-35.75 268.58-35.8L268.58-35.8Q268.88-35.9 269.53-35.9ZM307.28-11.55L307.28-17.75 307.43-26.4Q307.43-27.75 307.33-30.95L307.33-30.95Q307.28-32.4 306.08-33.2 304.88-34 303.28-34.05L303.28-34.05Q302.48-34.05 302.48-34.95L302.48-34.95Q302.48-35.65 303.88-35.65L303.88-35.65 305.23-35.55 317.43-35.3 327.43-35.5Q328.38-35.5 328.38-34.35L328.38-34.35Q328.38-34.05 328.08-32.38 327.78-30.7 327.78-29.75L327.78-29.75Q327.78-28.15 327-28.15 326.23-28.15 326.23-29.35 326.23-30.55 325.38-31.65 324.53-32.75 323.28-32.8L323.28-32.8Q318.78-33.15 316.38-33.15L316.38-33.15 315.08-33.15Q312.48-33.15 312.08-32.8L312.08-32.8Q311.33-32.15 311.33-21.75L311.33-21.75Q311.33-19.25 312.28-19.2L312.28-19.2 317.18-19.2Q320.18-19.2 321.18-19.4L321.18-19.4Q323.78-19.9 324.13-22L324.13-22Q324.28-22.85 324.78-22.85 325.28-22.85 325.38-22.7 325.48-22.55 325.48-22.05L325.48-22.05 325.08-16.8 325.23-13.75Q325.23-12.5 324.88-12.5L324.88-12.5Q324.13-12.5 323.78-13.7L323.78-13.7Q323.08-15.8 322.53-16.15L322.53-16.15Q321.48-16.85 318.88-16.85L318.88-16.85 315.28-16.85 313.68-16.9 313.33-16.9Q311.28-16.9 311.28-15.95L311.28-15.95 311.18-8.75 311.18-6.75Q311.18-3.15 312.4-2.78 313.63-2.4 314.53-2.4L314.53-2.4Q322.03-2.4 325.38-3.6L325.38-3.6Q328.33-4.7 328.98-5.9L328.98-5.9Q329.58-7.15 330.08-7.15L330.08-7.15Q330.68-7.15 330.68-6.3L330.68-6.3Q330.68-4.15 328.53-1.95 326.38 0.25 324.78 0.25L324.78 0.25Q321.18 0.25 316.65 0 312.13-0.25 311.03-0.25L311.03-0.25 304.23 0.2Q303.18 0.2 303.18-0.3L303.18-0.3 303.18-0.9Q303.18-1.2 303.68-1.3L303.68-1.3Q304.23-1.35 305.38-1.9 306.53-2.45 306.9-4.2 307.28-5.95 307.28-11.55L307.28-11.55ZM337.52-5.65L337.57-21.4 337.52-29.85Q337.52-31.7 336.77-32.68 336.02-33.65 335.1-33.77 334.17-33.9 333.42-34.1 332.67-34.3 332.67-34.8L332.67-34.8Q332.67-35.6 334.12-35.6L334.12-35.6 342.42-35.6 347.42-35.75Q351.92-35.75 355.12-33.48 358.32-31.2 358.32-27.35L358.32-27.35Q358.32-24.8 357.35-22.88 356.37-20.95 355.2-20.1 354.02-19.25 353.05-18.63 352.07-18 352.07-17.8L352.07-17.8Q352.07-17.2 356.27-11.33 360.47-5.45 362.02-3.8L362.02-3.8Q363.92-1.45 366.62-1.45L366.62-1.45Q367.32-1.45 367.32-0.85L367.32-0.85Q367.32-0.1 366.72 0.15 366.12 0.4 363.7 0.4 361.27 0.4 359.32-0.75L359.32-0.75Q356.62-2.3 350.37-12.75L350.37-12.75Q347.97-16.65 346.67-16.65L346.67-16.65 342.57-16.65Q341.97-16.65 341.85-16.15 341.72-15.65 341.72-13.2L341.72-13.2Q341.72-13.2 341.72-9.15L341.72-9.15 341.77-6.5Q341.77-6.5 341.77-6.05L341.77-6.05Q341.77-4 342.72-2.88 343.67-1.75 344.85-1.58 346.02-1.4 346.97-1.18 347.92-0.95 347.92-0.45L347.92-0.45Q347.92 0.35 347.02 0.35L347.02 0.35Q347.02 0.35 339.87 0L339.87 0 334.37 0.2Q333.32 0.2 333.32-0.6L333.32-0.6Q333.32-1.45 335.42-1.7L335.42-1.7Q336.22-1.8 336.87-2.8 337.52-3.8 337.52-5.65L337.52-5.65ZM341.72-28.2L341.72-26.8Q341.72-21.65 341.77-20.43 341.82-19.2 342.12-19L342.12-19Q342.87-18.55 344.27-18.55L344.27-18.55 346.22-18.55Q350.47-18.55 352.3-20.5 354.12-22.45 354.12-25.53 354.12-28.6 351.7-31.15 349.27-33.7 344.37-33.7L344.37-33.7Q342.52-33.7 342.12-32.73 341.72-31.75 341.72-28.2L341.72-28.2Z" fill="#2b7457" data-fill-palette-color="primary"></path></g></svg></g></svg></g></svg></g></svg></g><g transform="matrix(1,0,0,1,418.1946101785716,0)"><svg viewBox="0 0 77.39580830765522 55.72553893079154" height="55.72553893079154" width="77.39580830765522"><g><svg xmlns="http://www.w3.org/2000/svg" xmlns:xlink="http://www.w3.org/1999/xlink" version="1.1" x="0" y="0" viewBox="0 15 99.9990005493164 72" enable-background="new 0 0 100 100" xml:space="preserve" height="55.72553893079154" width="77.39580830765522" class="icon-icon-0" data-fill-palette-color="accent" id="icon-0"><g fill="#1fb593" data-fill-palette-color="accent"><polygon fill="#1fb593" points="33,67.685 45,72.534 45,69.429 38.065,66.551 45,63.583 45,60.501 33,65.35  " data-fill-palette-color="accent"></polygon><polygon fill="#1fb593" points="45.892,73.713 48.452,74.55 55.455,56.988 52.895,56.104  " data-fill-palette-color="accent"></polygon><polygon fill="#1fb593" points="57,63.583 63.934,66.551 57,69.429 57,72.534 69,67.685 69,65.35 57,60.501  " data-fill-palette-color="accent"></polygon><path fill="#1fb593" d="M19.766 35h-2.493l-0.657 4h-1.768l0.656-4h-2.516l-0.657 4H10v2h2.038l-0.34 3H10v2h1.38l-0.656 4h2.493l0.657-4h1.79l-0.657 4H17.5l0.68-4H20v-2h-1.525l0.317-3H21v-2h-1.869L19.766 35zM15.981 44h-1.768l0.295-3h1.791L15.981 44z" data-fill-palette-color="accent"></path><path fill="#1fb593" d="M96.223 15H3.777C1.691 15 0 16.691 0 18.777v64.445C0 85.309 1.691 87 3.777 87h92.445c2.086 0 3.777-1.691 3.777-3.777V18.777C100 16.691 98.309 15 96.223 15zM23.048 19.544c1.368 0 2.479 1.11 2.479 2.479 0 1.369-1.111 2.479-2.479 2.479s-2.479-1.109-2.479-2.479C20.569 20.654 21.68 19.544 23.048 19.544zM15.494 19.544c1.369 0 2.479 1.11 2.479 2.479 0 1.369-1.11 2.479-2.479 2.479-1.368 0-2.479-1.109-2.479-2.479C13.015 20.654 14.126 19.544 15.494 19.544zM7.94 19.544c1.368 0 2.479 1.11 2.479 2.479 0 1.369-1.11 2.479-2.479 2.479s-2.479-1.109-2.479-2.479C5.461 20.654 6.572 19.544 7.94 19.544zM94 76.059C94 78.235 92.235 80 90.058 80H7.942C5.765 80 4 78.235 4 76.059V32.941C4 30.765 5.765 29 7.942 29h82.115C92.235 29 94 30.765 94 32.941V76.059z" data-fill-palette-color="accent"></path><path fill="#1fb593" d="M75.367 36.812C74.879 37.341 75 38.073 75 38.972v3.391c0 0.278-0.404 0.509-0.484 0.694-0.08 0.186-0.473 0.327-0.599 0.427-0.125 0.099-0.275 0.168-0.434 0.208C73.324 43.731 73 43.75 73 43.75v2.182c0 0 0.342 0.02 0.499 0.06 0.159 0.04 0.372 0.112 0.499 0.218 0.125 0.106 0.463 0.255 0.542 0.447C74.618 46.848 75 47.096 75 47.4v3.311c0 0.899-0.121 1.29 0.367 1.818C75.857 53.058 76.151 53 76.984 53H80v-2h-1.377c-0.383 0-0.487 0.156-0.599-0.094C77.911 50.654 78 50.664 78 50.375v-3.233c0-0.437-0.24-0.796-0.371-1.081s-0.35-0.512-0.541-0.685c-0.191-0.171-0.328-0.297-0.54-0.376C76.336 44.921 76 44.875 76 44.861v-0.039c0-0.014 0.256-0.066 0.465-0.159 0.214-0.093 0.414-0.225 0.605-0.397 0.192-0.171 0.501-0.393 0.632-0.665C77.834 43.331 78 43.004 78 42.621v-3.312c0-0.29-0.089-0.621 0.024-0.872C78.136 38.186 78.24 38 78.623 38H80v-2h-3.016C76.151 36 75.857 36.283 75.367 36.812z" data-fill-palette-color="accent"></path><path fill="#1fb593" d="M89.083 43.484c-0.126-0.1-0.519-0.241-0.599-0.427C88.404 42.872 88 42.641 88 42.363v-3.391c0-0.899 0.121-1.631-0.367-2.161C87.143 36.283 86.849 36 86.016 36H83v2h1.377c0.383 0 0.487 0.186 0.599 0.437C85.089 38.688 85 39.019 85 39.309v3.312c0 0.384 0.166 0.71 0.298 0.981 0.131 0.271 0.439 0.493 0.632 0.665 0.191 0.172 0.392 0.304 0.605 0.397C86.744 44.756 87 44.809 87 44.822v0.039c0 0.014-0.336 0.06-0.548 0.139-0.212 0.08-0.349 0.205-0.54 0.377s-0.41 0.4-0.541 0.685S85 46.705 85 47.143v3.232c0 0.289 0.089 0.279-0.024 0.531C84.864 51.156 84.76 51 84.377 51H83v2h3.016c0.833 0 1.127 0.058 1.617-0.471C88.121 52.001 88 51.61 88 50.711V47.4c0-0.305 0.382-0.553 0.46-0.744 0.079-0.191 0.417-0.34 0.542-0.446 0.127-0.106 0.34-0.179 0.499-0.218C89.658 45.952 90 45.932 90 45.932V43.75c0 0-0.324-0.019-0.483-0.059C89.358 43.652 89.208 43.583 89.083 43.484z" data-fill-palette-color="accent"></path></g></svg></g></svg></g></svg></g><defs></defs></svg><rect width="395.52" height="44.47334802240373" fill="none" stroke="none" visibility="hidden"></rect></g></svg></g></svg>